<mxfile host="app.diagrams.net" agent="Mozilla/5.0 (Macintosh; Intel Mac OS X 10_15_7) AppleWebKit/537.36 (KHTML, like Gecko) Chrome/129.0.0.0 Safari/537.36" version="24.7.17">
  <diagram name="Page-1" id="7h-lDwGWefZdMQlNUgH6">
    <mxGraphModel dx="2954" dy="1145" grid="1" gridSize="10" guides="1" tooltips="1" connect="1" arrows="1" fold="1" page="1" pageScale="1" pageWidth="850" pageHeight="1100" math="0" shadow="0">
      <root>
        <mxCell id="0" />
        <mxCell id="1" parent="0" />
        <mxCell id="2" value="WebApplication: UofT Secondhand Hub" style="swimlane;fontStyle=1;align=center;verticalAlign=top;childLayout=stackLayout;horizontal=1;startSize=24.576923076923077;horizontalStack=0;resizeParent=1;resizeParentMax=0;resizeLast=0;collapsible=0;marginBottom=0;" parent="1" vertex="1">
          <mxGeometry x="660" y="8" width="248" height="307.5769230769231" as="geometry" />
        </mxCell>
        <mxCell id="3" value="-String {Name}" style="text;strokeColor=none;fillColor=none;align=left;verticalAlign=top;spacingLeft=4;spacingRight=4;overflow=hidden;rotatable=0;points=[[0,0.5],[1,0.5]];portConstraint=eastwest;" parent="2" vertex="1">
          <mxGeometry y="24.576923076923077" width="248" height="25" as="geometry" />
        </mxCell>
        <mxCell id="4" value="-Objects {Pages}" style="text;strokeColor=none;fillColor=none;align=left;verticalAlign=top;spacingLeft=4;spacingRight=4;overflow=hidden;rotatable=0;points=[[0,0.5],[1,0.5]];portConstraint=eastwest;" parent="2" vertex="1">
          <mxGeometry y="49.57692307692308" width="248" height="25" as="geometry" />
        </mxCell>
        <mxCell id="5" value="-List {Users}" style="text;strokeColor=none;fillColor=none;align=left;verticalAlign=top;spacingLeft=4;spacingRight=4;overflow=hidden;rotatable=0;points=[[0,0.5],[1,0.5]];portConstraint=eastwest;" parent="2" vertex="1">
          <mxGeometry y="74.57692307692308" width="248" height="25" as="geometry" />
        </mxCell>
        <mxCell id="6" value="-List {Items}" style="text;strokeColor=none;fillColor=none;align=left;verticalAlign=top;spacingLeft=4;spacingRight=4;overflow=hidden;rotatable=0;points=[[0,0.5],[1,0.5]];portConstraint=eastwest;" parent="2" vertex="1">
          <mxGeometry y="99.57692307692308" width="248" height="25" as="geometry" />
        </mxCell>
        <mxCell id="7" value="-List {Orders}" style="text;strokeColor=none;fillColor=none;align=left;verticalAlign=top;spacingLeft=4;spacingRight=4;overflow=hidden;rotatable=0;points=[[0,0.5],[1,0.5]];portConstraint=eastwest;" parent="2" vertex="1">
          <mxGeometry y="124.57692307692308" width="248" height="25" as="geometry" />
        </mxCell>
        <mxCell id="8" value="---" style="text;strokeColor=none;fillColor=none;align=left;verticalAlign=top;spacingLeft=4;spacingRight=4;overflow=hidden;rotatable=0;points=[[0,0.5],[1,0.5]];portConstraint=eastwest;" parent="2" vertex="1">
          <mxGeometry y="149.5769230769231" width="248" height="25" as="geometry" />
        </mxCell>
        <mxCell id="9" style="line;strokeWidth=1;fillColor=none;align=left;verticalAlign=middle;spacingTop=-1;spacingLeft=3;spacingRight=3;rotatable=0;labelPosition=right;points=[];portConstraint=eastwest;strokeColor=inherit;" parent="2" vertex="1">
          <mxGeometry y="174.5769230769231" width="248" height="8" as="geometry" />
        </mxCell>
        <mxCell id="10" value="+void app_setup()" style="text;strokeColor=none;fillColor=none;align=left;verticalAlign=top;spacingLeft=4;spacingRight=4;overflow=hidden;rotatable=0;points=[[0,0.5],[1,0.5]];portConstraint=eastwest;" parent="2" vertex="1">
          <mxGeometry y="182.5769230769231" width="248" height="25" as="geometry" />
        </mxCell>
        <mxCell id="11" value="+void app_teardown()" style="text;strokeColor=none;fillColor=none;align=left;verticalAlign=top;spacingLeft=4;spacingRight=4;overflow=hidden;rotatable=0;points=[[0,0.5],[1,0.5]];portConstraint=eastwest;" parent="2" vertex="1">
          <mxGeometry y="207.5769230769231" width="248" height="25" as="geometry" />
        </mxCell>
        <mxCell id="12" value="+List get_users()" style="text;strokeColor=none;fillColor=none;align=left;verticalAlign=top;spacingLeft=4;spacingRight=4;overflow=hidden;rotatable=0;points=[[0,0.5],[1,0.5]];portConstraint=eastwest;" parent="2" vertex="1">
          <mxGeometry y="232.5769230769231" width="248" height="25" as="geometry" />
        </mxCell>
        <mxCell id="13" value="+List get_items()" style="text;strokeColor=none;fillColor=none;align=left;verticalAlign=top;spacingLeft=4;spacingRight=4;overflow=hidden;rotatable=0;points=[[0,0.5],[1,0.5]];portConstraint=eastwest;" parent="2" vertex="1">
          <mxGeometry y="257.5769230769231" width="248" height="25" as="geometry" />
        </mxCell>
        <mxCell id="14" value="+List get_orders()" style="text;strokeColor=none;fillColor=none;align=left;verticalAlign=top;spacingLeft=4;spacingRight=4;overflow=hidden;rotatable=0;points=[[0,0.5],[1,0.5]];portConstraint=eastwest;" parent="2" vertex="1">
          <mxGeometry y="282.5769230769231" width="248" height="25" as="geometry" />
        </mxCell>
        <mxCell id="22" value="User" style="swimlane;fontStyle=1;align=center;verticalAlign=top;childLayout=stackLayout;horizontal=1;startSize=25.5;horizontalStack=0;resizeParent=1;resizeParentMax=0;resizeLast=0;collapsible=0;marginBottom=0;" parent="1" vertex="1">
          <mxGeometry x="110" y="260" width="304" height="371.5" as="geometry" />
        </mxCell>
        <mxCell id="23" value="-String username" style="text;strokeColor=none;fillColor=none;align=left;verticalAlign=top;spacingLeft=4;spacingRight=4;overflow=hidden;rotatable=0;points=[[0,0.5],[1,0.5]];portConstraint=eastwest;" parent="22" vertex="1">
          <mxGeometry y="25.5" width="304" height="26" as="geometry" />
        </mxCell>
        <mxCell id="24" value="-String UofT email" style="text;strokeColor=none;fillColor=none;align=left;verticalAlign=top;spacingLeft=4;spacingRight=4;overflow=hidden;rotatable=0;points=[[0,0.5],[1,0.5]];portConstraint=eastwest;" parent="22" vertex="1">
          <mxGeometry y="51.5" width="304" height="26" as="geometry" />
        </mxCell>
        <mxCell id="25" value="-String password" style="text;strokeColor=none;fillColor=none;align=left;verticalAlign=top;spacingLeft=4;spacingRight=4;overflow=hidden;rotatable=0;points=[[0,0.5],[1,0.5]];portConstraint=eastwest;" parent="22" vertex="1">
          <mxGeometry y="77.5" width="304" height="26" as="geometry" />
        </mxCell>
        <mxCell id="26" value="-Object location" style="text;strokeColor=none;fillColor=none;align=left;verticalAlign=top;spacingLeft=4;spacingRight=4;overflow=hidden;rotatable=0;points=[[0,0.5],[1,0.5]];portConstraint=eastwest;" parent="22" vertex="1">
          <mxGeometry y="103.5" width="304" height="26" as="geometry" />
        </mxCell>
        <mxCell id="d15mhQh052VwS-x0zD2D-71" value="-String description" style="text;strokeColor=none;fillColor=none;align=left;verticalAlign=top;spacingLeft=4;spacingRight=4;overflow=hidden;rotatable=0;points=[[0,0.5],[1,0.5]];portConstraint=eastwest;" vertex="1" parent="22">
          <mxGeometry y="129.5" width="304" height="26" as="geometry" />
        </mxCell>
        <mxCell id="d15mhQh052VwS-x0zD2D-72" value="-List orders" style="text;strokeColor=none;fillColor=none;align=left;verticalAlign=top;spacingLeft=4;spacingRight=4;overflow=hidden;rotatable=0;points=[[0,0.5],[1,0.5]];portConstraint=eastwest;" vertex="1" parent="22">
          <mxGeometry y="155.5" width="304" height="26" as="geometry" />
        </mxCell>
        <mxCell id="d15mhQh052VwS-x0zD2D-75" value="-List history" style="text;strokeColor=none;fillColor=none;align=left;verticalAlign=top;spacingLeft=4;spacingRight=4;overflow=hidden;rotatable=0;points=[[0,0.5],[1,0.5]];portConstraint=eastwest;" vertex="1" parent="22">
          <mxGeometry y="181.5" width="304" height="26" as="geometry" />
        </mxCell>
        <mxCell id="d15mhQh052VwS-x0zD2D-76" value="-Image picture" style="text;strokeColor=none;fillColor=none;align=left;verticalAlign=top;spacingLeft=4;spacingRight=4;overflow=hidden;rotatable=0;points=[[0,0.5],[1,0.5]];portConstraint=eastwest;" vertex="1" parent="22">
          <mxGeometry y="207.5" width="304" height="26" as="geometry" />
        </mxCell>
        <mxCell id="27" style="line;strokeWidth=1;fillColor=none;align=left;verticalAlign=middle;spacingTop=-1;spacingLeft=3;spacingRight=3;rotatable=0;labelPosition=right;points=[];portConstraint=eastwest;strokeColor=inherit;" parent="22" vertex="1">
          <mxGeometry y="233.5" width="304" height="8" as="geometry" />
        </mxCell>
        <mxCell id="28" value="+void login()" style="text;strokeColor=none;fillColor=none;align=left;verticalAlign=top;spacingLeft=4;spacingRight=4;overflow=hidden;rotatable=0;points=[[0,0.5],[1,0.5]];portConstraint=eastwest;" parent="22" vertex="1">
          <mxGeometry y="241.5" width="304" height="26" as="geometry" />
        </mxCell>
        <mxCell id="29" value="+void logout()" style="text;strokeColor=none;fillColor=none;align=left;verticalAlign=top;spacingLeft=4;spacingRight=4;overflow=hidden;rotatable=0;points=[[0,0.5],[1,0.5]];portConstraint=eastwest;" parent="22" vertex="1">
          <mxGeometry y="267.5" width="304" height="26" as="geometry" />
        </mxCell>
        <mxCell id="30" value="+void get_history()" style="text;strokeColor=none;fillColor=none;align=left;verticalAlign=top;spacingLeft=4;spacingRight=4;overflow=hidden;rotatable=0;points=[[0,0.5],[1,0.5]];portConstraint=eastwest;" parent="22" vertex="1">
          <mxGeometry y="293.5" width="304" height="26" as="geometry" />
        </mxCell>
        <mxCell id="31" value="+void get_locality()" style="text;strokeColor=none;fillColor=none;align=left;verticalAlign=top;spacingLeft=4;spacingRight=4;overflow=hidden;rotatable=0;points=[[0,0.5],[1,0.5]];portConstraint=eastwest;" parent="22" vertex="1">
          <mxGeometry y="319.5" width="304" height="26" as="geometry" />
        </mxCell>
        <mxCell id="d15mhQh052VwS-x0zD2D-70" value="+void get_orders()" style="text;strokeColor=none;fillColor=none;align=left;verticalAlign=top;spacingLeft=4;spacingRight=4;overflow=hidden;rotatable=0;points=[[0,0.5],[1,0.5]];portConstraint=eastwest;" vertex="1" parent="22">
          <mxGeometry y="345.5" width="304" height="26" as="geometry" />
        </mxCell>
        <mxCell id="32" value="Item Listing" style="swimlane;fontStyle=1;align=center;verticalAlign=top;childLayout=stackLayout;horizontal=1;startSize=25.5;horizontalStack=0;resizeParent=1;resizeParentMax=0;resizeLast=0;collapsible=0;marginBottom=0;fillColor=#d5e8d4;strokeColor=#82b366;" parent="1" vertex="1">
          <mxGeometry x="1200" y="360" width="310" height="267.5" as="geometry" />
        </mxCell>
        <mxCell id="33" value="-String name" style="text;strokeColor=none;fillColor=none;align=left;verticalAlign=top;spacingLeft=4;spacingRight=4;overflow=hidden;rotatable=0;points=[[0,0.5],[1,0.5]];portConstraint=eastwest;" parent="32" vertex="1">
          <mxGeometry y="25.5" width="310" height="26" as="geometry" />
        </mxCell>
        <mxCell id="34" value="-String description" style="text;strokeColor=none;fillColor=none;align=left;verticalAlign=top;spacingLeft=4;spacingRight=4;overflow=hidden;rotatable=0;points=[[0,0.5],[1,0.5]];portConstraint=eastwest;" parent="32" vertex="1">
          <mxGeometry y="51.5" width="310" height="26" as="geometry" />
        </mxCell>
        <mxCell id="35" value="-double price" style="text;strokeColor=none;fillColor=none;align=left;verticalAlign=top;spacingLeft=4;spacingRight=4;overflow=hidden;rotatable=0;points=[[0,0.5],[1,0.5]];portConstraint=eastwest;" parent="32" vertex="1">
          <mxGeometry y="77.5" width="310" height="26" as="geometry" />
        </mxCell>
        <mxCell id="36" value="-int quantity" style="text;strokeColor=none;fillColor=none;align=left;verticalAlign=top;spacingLeft=4;spacingRight=4;overflow=hidden;rotatable=0;points=[[0,0.5],[1,0.5]];portConstraint=eastwest;" parent="32" vertex="1">
          <mxGeometry y="103.5" width="310" height="26" as="geometry" />
        </mxCell>
        <mxCell id="37" value="-Object date" style="text;strokeColor=none;fillColor=none;align=left;verticalAlign=top;spacingLeft=4;spacingRight=4;overflow=hidden;rotatable=0;points=[[0,0.5],[1,0.5]];portConstraint=eastwest;" parent="32" vertex="1">
          <mxGeometry y="129.5" width="310" height="26" as="geometry" />
        </mxCell>
        <mxCell id="38" style="line;strokeWidth=1;fillColor=none;align=left;verticalAlign=middle;spacingTop=-1;spacingLeft=3;spacingRight=3;rotatable=0;labelPosition=right;points=[];portConstraint=eastwest;strokeColor=inherit;" parent="32" vertex="1">
          <mxGeometry y="155.5" width="310" height="8" as="geometry" />
        </mxCell>
        <mxCell id="39" value="+void updateDescription(String newDesc)" style="text;strokeColor=none;fillColor=none;align=left;verticalAlign=top;spacingLeft=4;spacingRight=4;overflow=hidden;rotatable=0;points=[[0,0.5],[1,0.5]];portConstraint=eastwest;" parent="32" vertex="1">
          <mxGeometry y="163.5" width="310" height="26" as="geometry" />
        </mxCell>
        <mxCell id="40" value="+void increaseQuantity(int amount)" style="text;strokeColor=none;fillColor=none;align=left;verticalAlign=top;spacingLeft=4;spacingRight=4;overflow=hidden;rotatable=0;points=[[0,0.5],[1,0.5]];portConstraint=eastwest;" parent="32" vertex="1">
          <mxGeometry y="189.5" width="310" height="26" as="geometry" />
        </mxCell>
        <mxCell id="41" value="+void decreaseQuantity(int amount)" style="text;strokeColor=none;fillColor=none;align=left;verticalAlign=top;spacingLeft=4;spacingRight=4;overflow=hidden;rotatable=0;points=[[0,0.5],[1,0.5]];portConstraint=eastwest;" parent="32" vertex="1">
          <mxGeometry y="215.5" width="310" height="26" as="geometry" />
        </mxCell>
        <mxCell id="d15mhQh052VwS-x0zD2D-97" value="+void changeDate(String Date)" style="text;strokeColor=none;fillColor=none;align=left;verticalAlign=top;spacingLeft=4;spacingRight=4;overflow=hidden;rotatable=0;points=[[0,0.5],[1,0.5]];portConstraint=eastwest;" vertex="1" parent="32">
          <mxGeometry y="241.5" width="310" height="26" as="geometry" />
        </mxCell>
        <mxCell id="42" value="Transaction" style="swimlane;fontStyle=1;align=center;verticalAlign=top;childLayout=stackLayout;horizontal=1;startSize=24.954545454545453;horizontalStack=0;resizeParent=1;resizeParentMax=0;resizeLast=0;collapsible=0;marginBottom=0;" parent="1" vertex="1">
          <mxGeometry x="570" y="610" width="271" height="282.95454545454544" as="geometry" />
        </mxCell>
        <mxCell id="43" value="-int orderId" style="text;strokeColor=none;fillColor=none;align=left;verticalAlign=top;spacingLeft=4;spacingRight=4;overflow=hidden;rotatable=0;points=[[0,0.5],[1,0.5]];portConstraint=eastwest;" parent="42" vertex="1">
          <mxGeometry y="24.954545454545453" width="271" height="25" as="geometry" />
        </mxCell>
        <mxCell id="44" value="-User user" style="text;strokeColor=none;fillColor=none;align=left;verticalAlign=top;spacingLeft=4;spacingRight=4;overflow=hidden;rotatable=0;points=[[0,0.5],[1,0.5]];portConstraint=eastwest;" parent="42" vertex="1">
          <mxGeometry y="49.95454545454545" width="271" height="25" as="geometry" />
        </mxCell>
        <mxCell id="45" value="-List products" style="text;strokeColor=none;fillColor=none;align=left;verticalAlign=top;spacingLeft=4;spacingRight=4;overflow=hidden;rotatable=0;points=[[0,0.5],[1,0.5]];portConstraint=eastwest;" parent="42" vertex="1">
          <mxGeometry y="74.95454545454545" width="271" height="25" as="geometry" />
        </mxCell>
        <mxCell id="46" value="-double totalAmount" style="text;strokeColor=none;fillColor=none;align=left;verticalAlign=top;spacingLeft=4;spacingRight=4;overflow=hidden;rotatable=0;points=[[0,0.5],[1,0.5]];portConstraint=eastwest;" parent="42" vertex="1">
          <mxGeometry y="99.95454545454545" width="271" height="25" as="geometry" />
        </mxCell>
        <mxCell id="47" value="-boolean status" style="text;strokeColor=none;fillColor=none;align=left;verticalAlign=top;spacingLeft=4;spacingRight=4;overflow=hidden;rotatable=0;points=[[0,0.5],[1,0.5]];portConstraint=eastwest;" parent="42" vertex="1">
          <mxGeometry y="124.95454545454545" width="271" height="25" as="geometry" />
        </mxCell>
        <mxCell id="48" value="---" style="text;strokeColor=none;fillColor=none;align=left;verticalAlign=top;spacingLeft=4;spacingRight=4;overflow=hidden;rotatable=0;points=[[0,0.5],[1,0.5]];portConstraint=eastwest;" parent="42" vertex="1">
          <mxGeometry y="149.95454545454544" width="271" height="25" as="geometry" />
        </mxCell>
        <mxCell id="49" style="line;strokeWidth=1;fillColor=none;align=left;verticalAlign=middle;spacingTop=-1;spacingLeft=3;spacingRight=3;rotatable=0;labelPosition=right;points=[];portConstraint=eastwest;strokeColor=inherit;" parent="42" vertex="1">
          <mxGeometry y="174.95454545454544" width="271" height="8" as="geometry" />
        </mxCell>
        <mxCell id="50" value="+void addItem(Product product)" style="text;strokeColor=none;fillColor=none;align=left;verticalAlign=top;spacingLeft=4;spacingRight=4;overflow=hidden;rotatable=0;points=[[0,0.5],[1,0.5]];portConstraint=eastwest;" parent="42" vertex="1">
          <mxGeometry y="182.95454545454544" width="271" height="25" as="geometry" />
        </mxCell>
        <mxCell id="51" value="+void removeItem(Product product)" style="text;strokeColor=none;fillColor=none;align=left;verticalAlign=top;spacingLeft=4;spacingRight=4;overflow=hidden;rotatable=0;points=[[0,0.5],[1,0.5]];portConstraint=eastwest;" parent="42" vertex="1">
          <mxGeometry y="207.95454545454544" width="271" height="25" as="geometry" />
        </mxCell>
        <mxCell id="52" value="+void calculateTotalAmount()" style="text;strokeColor=none;fillColor=none;align=left;verticalAlign=top;spacingLeft=4;spacingRight=4;overflow=hidden;rotatable=0;points=[[0,0.5],[1,0.5]];portConstraint=eastwest;" parent="42" vertex="1">
          <mxGeometry y="232.95454545454544" width="271" height="25" as="geometry" />
        </mxCell>
        <mxCell id="53" value="+void process()" style="text;strokeColor=none;fillColor=none;align=left;verticalAlign=top;spacingLeft=4;spacingRight=4;overflow=hidden;rotatable=0;points=[[0,0.5],[1,0.5]];portConstraint=eastwest;" parent="42" vertex="1">
          <mxGeometry y="257.95454545454544" width="271" height="25" as="geometry" />
        </mxCell>
        <mxCell id="GEHx58tBoP0Lv0qum1TV-69" value="Authentication" style="swimlane;fontStyle=1;align=center;verticalAlign=top;childLayout=stackLayout;horizontal=1;startSize=24.576923076923077;horizontalStack=0;resizeParent=1;resizeParentMax=0;resizeLast=0;collapsible=0;marginBottom=0;" parent="1" vertex="1">
          <mxGeometry x="1050" y="690" width="248" height="332.5769230769231" as="geometry" />
        </mxCell>
        <mxCell id="GEHx58tBoP0Lv0qum1TV-70" value="-String name" style="text;strokeColor=none;fillColor=none;align=left;verticalAlign=top;spacingLeft=4;spacingRight=4;overflow=hidden;rotatable=0;points=[[0,0.5],[1,0.5]];portConstraint=eastwest;" parent="GEHx58tBoP0Lv0qum1TV-69" vertex="1">
          <mxGeometry y="24.576923076923077" width="248" height="25" as="geometry" />
        </mxCell>
        <mxCell id="GEHx58tBoP0Lv0qum1TV-71" value="-List modules" style="text;strokeColor=none;fillColor=none;align=left;verticalAlign=top;spacingLeft=4;spacingRight=4;overflow=hidden;rotatable=0;points=[[0,0.5],[1,0.5]];portConstraint=eastwest;" parent="GEHx58tBoP0Lv0qum1TV-69" vertex="1">
          <mxGeometry y="49.57692307692308" width="248" height="25" as="geometry" />
        </mxCell>
        <mxCell id="GEHx58tBoP0Lv0qum1TV-72" value="-List users" style="text;strokeColor=none;fillColor=none;align=left;verticalAlign=top;spacingLeft=4;spacingRight=4;overflow=hidden;rotatable=0;points=[[0,0.5],[1,0.5]];portConstraint=eastwest;" parent="GEHx58tBoP0Lv0qum1TV-69" vertex="1">
          <mxGeometry y="74.57692307692308" width="248" height="25" as="geometry" />
        </mxCell>
        <mxCell id="GEHx58tBoP0Lv0qum1TV-73" value="-List products" style="text;strokeColor=none;fillColor=none;align=left;verticalAlign=top;spacingLeft=4;spacingRight=4;overflow=hidden;rotatable=0;points=[[0,0.5],[1,0.5]];portConstraint=eastwest;" parent="GEHx58tBoP0Lv0qum1TV-69" vertex="1">
          <mxGeometry y="99.57692307692308" width="248" height="25" as="geometry" />
        </mxCell>
        <mxCell id="GEHx58tBoP0Lv0qum1TV-74" value="-List orders" style="text;strokeColor=none;fillColor=none;align=left;verticalAlign=top;spacingLeft=4;spacingRight=4;overflow=hidden;rotatable=0;points=[[0,0.5],[1,0.5]];portConstraint=eastwest;" parent="GEHx58tBoP0Lv0qum1TV-69" vertex="1">
          <mxGeometry y="124.57692307692308" width="248" height="25" as="geometry" />
        </mxCell>
        <mxCell id="GEHx58tBoP0Lv0qum1TV-75" value="---" style="text;strokeColor=none;fillColor=none;align=left;verticalAlign=top;spacingLeft=4;spacingRight=4;overflow=hidden;rotatable=0;points=[[0,0.5],[1,0.5]];portConstraint=eastwest;" parent="GEHx58tBoP0Lv0qum1TV-69" vertex="1">
          <mxGeometry y="149.5769230769231" width="248" height="25" as="geometry" />
        </mxCell>
        <mxCell id="GEHx58tBoP0Lv0qum1TV-76" style="line;strokeWidth=1;fillColor=none;align=left;verticalAlign=middle;spacingTop=-1;spacingLeft=3;spacingRight=3;rotatable=0;labelPosition=right;points=[];portConstraint=eastwest;strokeColor=inherit;" parent="GEHx58tBoP0Lv0qum1TV-69" vertex="1">
          <mxGeometry y="174.5769230769231" width="248" height="8" as="geometry" />
        </mxCell>
        <mxCell id="GEHx58tBoP0Lv0qum1TV-77" value="+void start()" style="text;strokeColor=none;fillColor=none;align=left;verticalAlign=top;spacingLeft=4;spacingRight=4;overflow=hidden;rotatable=0;points=[[0,0.5],[1,0.5]];portConstraint=eastwest;" parent="GEHx58tBoP0Lv0qum1TV-69" vertex="1">
          <mxGeometry y="182.5769230769231" width="248" height="25" as="geometry" />
        </mxCell>
        <mxCell id="GEHx58tBoP0Lv0qum1TV-78" value="+void stop()" style="text;strokeColor=none;fillColor=none;align=left;verticalAlign=top;spacingLeft=4;spacingRight=4;overflow=hidden;rotatable=0;points=[[0,0.5],[1,0.5]];portConstraint=eastwest;" parent="GEHx58tBoP0Lv0qum1TV-69" vertex="1">
          <mxGeometry y="207.5769230769231" width="248" height="25" as="geometry" />
        </mxCell>
        <mxCell id="GEHx58tBoP0Lv0qum1TV-79" value="+List getUsers()" style="text;strokeColor=none;fillColor=none;align=left;verticalAlign=top;spacingLeft=4;spacingRight=4;overflow=hidden;rotatable=0;points=[[0,0.5],[1,0.5]];portConstraint=eastwest;" parent="GEHx58tBoP0Lv0qum1TV-69" vertex="1">
          <mxGeometry y="232.5769230769231" width="248" height="25" as="geometry" />
        </mxCell>
        <mxCell id="GEHx58tBoP0Lv0qum1TV-80" value="+List getProducts()" style="text;strokeColor=none;fillColor=none;align=left;verticalAlign=top;spacingLeft=4;spacingRight=4;overflow=hidden;rotatable=0;points=[[0,0.5],[1,0.5]];portConstraint=eastwest;" parent="GEHx58tBoP0Lv0qum1TV-69" vertex="1">
          <mxGeometry y="257.5769230769231" width="248" height="25" as="geometry" />
        </mxCell>
        <mxCell id="GEHx58tBoP0Lv0qum1TV-81" value="+List getOrders()" style="text;strokeColor=none;fillColor=none;align=left;verticalAlign=top;spacingLeft=4;spacingRight=4;overflow=hidden;rotatable=0;points=[[0,0.5],[1,0.5]];portConstraint=eastwest;" parent="GEHx58tBoP0Lv0qum1TV-69" vertex="1">
          <mxGeometry y="282.5769230769231" width="248" height="25" as="geometry" />
        </mxCell>
        <mxCell id="GEHx58tBoP0Lv0qum1TV-82" value="+void processOrder(Order order)" style="text;strokeColor=none;fillColor=none;align=left;verticalAlign=top;spacingLeft=4;spacingRight=4;overflow=hidden;rotatable=0;points=[[0,0.5],[1,0.5]];portConstraint=eastwest;" parent="GEHx58tBoP0Lv0qum1TV-69" vertex="1">
          <mxGeometry y="307.5769230769231" width="248" height="25" as="geometry" />
        </mxCell>
        <mxCell id="d15mhQh052VwS-x0zD2D-74" style="edgeStyle=orthogonalEdgeStyle;rounded=0;orthogonalLoop=1;jettySize=auto;html=1;exitX=1;exitY=0.5;exitDx=0;exitDy=0;entryX=0.5;entryY=0;entryDx=0;entryDy=0;" edge="1" parent="1" source="13" target="32">
          <mxGeometry relative="1" as="geometry" />
        </mxCell>
        <mxCell id="d15mhQh052VwS-x0zD2D-80" value="Classname" style="swimlane;fontStyle=1;align=center;verticalAlign=top;childLayout=stackLayout;horizontal=1;startSize=26;horizontalStack=0;resizeParent=1;resizeParentMax=0;resizeLast=0;collapsible=1;marginBottom=0;whiteSpace=wrap;html=1;" vertex="1" parent="1">
          <mxGeometry x="770" y="370" width="160" height="86" as="geometry" />
        </mxCell>
        <mxCell id="d15mhQh052VwS-x0zD2D-81" value="+ field: type" style="text;strokeColor=none;fillColor=none;align=left;verticalAlign=top;spacingLeft=4;spacingRight=4;overflow=hidden;rotatable=0;points=[[0,0.5],[1,0.5]];portConstraint=eastwest;whiteSpace=wrap;html=1;" vertex="1" parent="d15mhQh052VwS-x0zD2D-80">
          <mxGeometry y="26" width="160" height="26" as="geometry" />
        </mxCell>
        <mxCell id="d15mhQh052VwS-x0zD2D-82" value="" style="line;strokeWidth=1;fillColor=none;align=left;verticalAlign=middle;spacingTop=-1;spacingLeft=3;spacingRight=3;rotatable=0;labelPosition=right;points=[];portConstraint=eastwest;strokeColor=inherit;" vertex="1" parent="d15mhQh052VwS-x0zD2D-80">
          <mxGeometry y="52" width="160" height="8" as="geometry" />
        </mxCell>
        <mxCell id="d15mhQh052VwS-x0zD2D-83" value="+ method(type): type" style="text;strokeColor=none;fillColor=none;align=left;verticalAlign=top;spacingLeft=4;spacingRight=4;overflow=hidden;rotatable=0;points=[[0,0.5],[1,0.5]];portConstraint=eastwest;whiteSpace=wrap;html=1;" vertex="1" parent="d15mhQh052VwS-x0zD2D-80">
          <mxGeometry y="60" width="160" height="26" as="geometry" />
        </mxCell>
        <mxCell id="d15mhQh052VwS-x0zD2D-84" value="Classname" style="swimlane;fontStyle=1;align=center;verticalAlign=top;childLayout=stackLayout;horizontal=1;startSize=26;horizontalStack=0;resizeParent=1;resizeParentMax=0;resizeLast=0;collapsible=1;marginBottom=0;whiteSpace=wrap;html=1;" vertex="1" parent="1">
          <mxGeometry x="770" y="370" width="160" height="86" as="geometry" />
        </mxCell>
        <mxCell id="d15mhQh052VwS-x0zD2D-85" value="+ field: type" style="text;strokeColor=none;fillColor=none;align=left;verticalAlign=top;spacingLeft=4;spacingRight=4;overflow=hidden;rotatable=0;points=[[0,0.5],[1,0.5]];portConstraint=eastwest;whiteSpace=wrap;html=1;" vertex="1" parent="d15mhQh052VwS-x0zD2D-84">
          <mxGeometry y="26" width="160" height="26" as="geometry" />
        </mxCell>
        <mxCell id="d15mhQh052VwS-x0zD2D-86" value="" style="line;strokeWidth=1;fillColor=none;align=left;verticalAlign=middle;spacingTop=-1;spacingLeft=3;spacingRight=3;rotatable=0;labelPosition=right;points=[];portConstraint=eastwest;strokeColor=inherit;" vertex="1" parent="d15mhQh052VwS-x0zD2D-84">
          <mxGeometry y="52" width="160" height="8" as="geometry" />
        </mxCell>
        <mxCell id="d15mhQh052VwS-x0zD2D-87" value="+ method(type): type" style="text;strokeColor=none;fillColor=none;align=left;verticalAlign=top;spacingLeft=4;spacingRight=4;overflow=hidden;rotatable=0;points=[[0,0.5],[1,0.5]];portConstraint=eastwest;whiteSpace=wrap;html=1;" vertex="1" parent="d15mhQh052VwS-x0zD2D-84">
          <mxGeometry y="60" width="160" height="26" as="geometry" />
        </mxCell>
        <mxCell id="d15mhQh052VwS-x0zD2D-88" value="Seller&lt;div&gt;&lt;br&gt;&lt;/div&gt;" style="swimlane;fontStyle=1;align=center;verticalAlign=top;childLayout=stackLayout;horizontal=1;startSize=26;horizontalStack=0;resizeParent=1;resizeParentMax=0;resizeLast=0;collapsible=1;marginBottom=0;whiteSpace=wrap;html=1;" vertex="1" parent="1">
          <mxGeometry x="50" y="690" width="160" height="86" as="geometry" />
        </mxCell>
        <mxCell id="d15mhQh052VwS-x0zD2D-89" value="+ field: type" style="text;strokeColor=none;fillColor=none;align=left;verticalAlign=top;spacingLeft=4;spacingRight=4;overflow=hidden;rotatable=0;points=[[0,0.5],[1,0.5]];portConstraint=eastwest;whiteSpace=wrap;html=1;" vertex="1" parent="d15mhQh052VwS-x0zD2D-88">
          <mxGeometry y="26" width="160" height="26" as="geometry" />
        </mxCell>
        <mxCell id="d15mhQh052VwS-x0zD2D-90" value="" style="line;strokeWidth=1;fillColor=none;align=left;verticalAlign=middle;spacingTop=-1;spacingLeft=3;spacingRight=3;rotatable=0;labelPosition=right;points=[];portConstraint=eastwest;strokeColor=inherit;" vertex="1" parent="d15mhQh052VwS-x0zD2D-88">
          <mxGeometry y="52" width="160" height="8" as="geometry" />
        </mxCell>
        <mxCell id="d15mhQh052VwS-x0zD2D-91" value="+ method(type): type" style="text;strokeColor=none;fillColor=none;align=left;verticalAlign=top;spacingLeft=4;spacingRight=4;overflow=hidden;rotatable=0;points=[[0,0.5],[1,0.5]];portConstraint=eastwest;whiteSpace=wrap;html=1;" vertex="1" parent="d15mhQh052VwS-x0zD2D-88">
          <mxGeometry y="60" width="160" height="26" as="geometry" />
        </mxCell>
        <mxCell id="d15mhQh052VwS-x0zD2D-93" value="&lt;div&gt;Buyer&lt;/div&gt;&lt;div&gt;&lt;br&gt;&lt;/div&gt;" style="swimlane;fontStyle=1;align=center;verticalAlign=top;childLayout=stackLayout;horizontal=1;startSize=26;horizontalStack=0;resizeParent=1;resizeParentMax=0;resizeLast=0;collapsible=1;marginBottom=0;whiteSpace=wrap;html=1;" vertex="1" parent="1">
          <mxGeometry x="265" y="690" width="160" height="86" as="geometry" />
        </mxCell>
        <mxCell id="d15mhQh052VwS-x0zD2D-94" value="+ field: type" style="text;strokeColor=none;fillColor=none;align=left;verticalAlign=top;spacingLeft=4;spacingRight=4;overflow=hidden;rotatable=0;points=[[0,0.5],[1,0.5]];portConstraint=eastwest;whiteSpace=wrap;html=1;" vertex="1" parent="d15mhQh052VwS-x0zD2D-93">
          <mxGeometry y="26" width="160" height="26" as="geometry" />
        </mxCell>
        <mxCell id="d15mhQh052VwS-x0zD2D-95" value="" style="line;strokeWidth=1;fillColor=none;align=left;verticalAlign=middle;spacingTop=-1;spacingLeft=3;spacingRight=3;rotatable=0;labelPosition=right;points=[];portConstraint=eastwest;strokeColor=inherit;" vertex="1" parent="d15mhQh052VwS-x0zD2D-93">
          <mxGeometry y="52" width="160" height="8" as="geometry" />
        </mxCell>
        <mxCell id="d15mhQh052VwS-x0zD2D-96" value="+ method(type): type" style="text;strokeColor=none;fillColor=none;align=left;verticalAlign=top;spacingLeft=4;spacingRight=4;overflow=hidden;rotatable=0;points=[[0,0.5],[1,0.5]];portConstraint=eastwest;whiteSpace=wrap;html=1;" vertex="1" parent="d15mhQh052VwS-x0zD2D-93">
          <mxGeometry y="60" width="160" height="26" as="geometry" />
        </mxCell>
      </root>
    </mxGraphModel>
  </diagram>
</mxfile>
